<svg width="66" height="110" viewBox="0 0 66 110" fill="none" xmlns="http://www.w3.org/2000/svg">
<path fill-rule="evenodd" clip-rule="evenodd" d="M13.7617 8.4939C8.79193 13.9325 6 21.3087 6 29H10.0765C10.0765 22.4919 12.439 16.2503 16.6442 11.6484C20.8494 7.04648 26.5529 4.46115 32.5 4.46115C38.4471 4.46115 44.1506 7.04648 48.3558 11.6484C52.561 16.2503 54.9235 22.4919 54.9235 29H59C59 21.3087 56.2081 13.9325 51.2383 8.4939C46.2686 3.05536 39.5283 0 32.5 0C25.4717 0 18.7314 3.05536 13.7617 8.4939ZM6 33C2.68628 33 0 35.6863 0 39V104C0 107.314 2.68628 110 6 110H60C63.3137 110 66 107.314 66 104V39C66 35.6863 63.3137 33 60 33H6ZM47 62.5C47 67.5994 44.1726 72.0385 40 74.335V99C40 100.657 38.6569 102 37 102H30C28.3431 102 27 100.657 27 99V74.335C22.8274 72.0385 20 67.5994 20 62.5C20 55.0441 26.0441 49 33.5 49C40.9559 49 47 55.0441 47 62.5Z" fill="url(#paint0_linear_7_9)"/>
<defs>
<linearGradient id="paint0_linear_7_9" x1="85.5" y1="-39.5" x2="1.50001" y2="107.5" gradientUnits="userSpaceOnUse">
<stop stop-color="#E6B856"/>
<stop offset="1" stop-color="#806630"/>
</linearGradient>
</defs>
</svg>
