<svg width="240" height="239" viewBox="0 0 240 239" fill="none" xmlns="http://www.w3.org/2000/svg">
<path fill-rule="evenodd" clip-rule="evenodd" d="M94 6C94 2.68629 96.6863 0 100 0H141C144.314 0 147 2.68629 147 6V18.504C156.321 20.9772 165.134 24.7005 173.247 29.4834L181.872 20.8586C184.215 18.5155 188.014 18.5155 190.357 20.8586L219.349 49.85C221.692 52.1931 221.692 55.9921 219.349 58.3353L210.67 67.0139C215.379 75.0549 219.049 83.7784 221.496 93H234C237.314 93 240 95.6863 240 99V140C240 143.314 237.314 146 234 146H221.756C219.331 155.52 215.605 164.521 210.778 172.801L219.348 181.372C221.692 183.715 221.692 187.514 219.348 189.857L190.357 218.848C188.014 221.192 184.215 221.192 181.872 218.848L173.431 210.408C164.978 215.414 155.762 219.269 146 221.756V233C146 236.314 143.314 239 140 239H99C95.6863 239 93 236.314 93 233V221.496C83.4378 218.959 74.4112 215.106 66.1257 210.144L58.1282 218.141C55.785 220.485 51.986 220.485 49.6429 218.141L20.6515 189.15C18.3083 186.807 18.3083 183.008 20.6515 180.665L28.9626 172.354C24.2617 164.197 20.6256 155.349 18.2439 146H6C2.68629 146 2.19928e-06 143.314 2.05444e-06 140L0 99C0 95.6863 2.68629 93 6 93H18.504C20.9959 83.608 24.7569 74.7327 29.5922 66.5688L20.6515 57.6282C18.3084 55.285 18.3084 51.486 20.6515 49.1429L49.6429 20.1515C51.986 17.8083 55.785 17.8083 58.1282 20.1515L67.1987 29.2221C75.479 24.3954 84.4796 20.6692 94 18.2439V6ZM120.5 201C165.511 201 202 164.511 202 119.5C202 74.4888 165.511 38 120.5 38C75.4888 38 39 74.4888 39 119.5C39 164.511 75.4888 201 120.5 201Z" fill="url(#paint0_linear_7_10)"/>
<defs>
<linearGradient id="paint0_linear_7_10" x1="-13.5" y1="225.5" x2="268.5" y2="6.99999" gradientUnits="userSpaceOnUse">
<stop stop-color="#2C1E12"/>
<stop offset="1" stop-color="#9D5E2F"/>
</linearGradient>
</defs>
</svg>
