<svg width="78" height="60" viewBox="0 0 78 60" fill="none" xmlns="http://www.w3.org/2000/svg">
<g clip-path="url(#clip0_8_24)">
<path d="M32.1037 31.365C33.9353 32.7683 36.4151 33.5562 39.0002 33.5562C41.5853 33.5562 44.0651 32.7683 45.8967 31.365L77.2884 7.215C76.5657 5.82494 75.3187 4.63306 73.708 3.79278C72.0972 2.95249 70.1964 2.50225 68.2502 2.5H9.75016C7.80393 2.50225 5.90311 2.95249 4.29235 3.79278C2.68159 4.63306 1.43461 5.82494 0.711914 7.215L32.1037 31.365Z" fill="white"/>
<path d="M50.492 34.9C47.4415 37.2406 43.3087 38.5551 39 38.5551C34.6913 38.5551 30.5585 37.2406 27.508 34.9L0 13.75V57.5H78V13.75L50.492 34.9Z" fill="white"/>
</g>
<defs>
<clipPath id="clip0_8_24">
<path d="M0 0H78V45C78 53.2843 71.2843 60 63 60H15C6.71573 60 0 53.2843 0 45V0Z" fill="white"/>
</clipPath>
</defs>
</svg>
