<svg width="41" height="41" viewBox="0 0 41 41" fill="none" xmlns="http://www.w3.org/2000/svg">
<mask id="mask0_256_155" style="mask-type:alpha" maskUnits="userSpaceOnUse" x="0" y="0" width="41" height="41">
<g clip-path="url(#clip0_256_155)">
<path d="M28.7516 -0.000365662C30.3379 -0.0551384 31.9188 0.213901 33.3977 0.790335C34.8767 1.36677 36.2226 2.23851 37.3535 3.35235C38.4436 4.48314 39.2959 5.82099 39.8602 7.28681C40.4244 8.75264 40.689 10.3167 40.6385 11.8865V28.7517C40.6385 32.2738 39.487 35.3048 37.2858 37.4383C34.9506 39.5943 31.8603 40.744 28.6838 40.6387H11.9541C8.80417 40.7362 5.74312 39.5861 3.43684 37.4383C2.29361 36.2933 1.39842 34.925 0.807042 33.4189C0.21566 31.9128 -0.0592429 30.301 -0.000542433 28.684V11.8865C-0.000542433 4.74085 4.74068 -0.000365662 11.8864 -0.000365662H28.7516ZM28.8362 3.77568H11.9541C9.49883 3.77568 7.38221 4.50379 5.97678 5.89229C5.22579 6.69218 4.6438 7.63527 4.26558 8.6652C3.88735 9.69513 3.72067 10.7907 3.7755 11.8865V28.684C3.7755 31.224 4.50362 33.2559 5.97678 34.746C7.61981 36.1992 9.7627 36.958 11.9541 36.8626H28.6838C30.8752 36.958 33.0181 36.1992 34.6612 34.746C35.45 33.9656 36.068 33.0298 36.4761 31.9979C36.8842 30.966 37.0734 29.8606 37.0318 28.7517V11.8865C37.0864 9.70671 36.2979 7.58986 34.8305 5.97696C34.0306 5.22597 33.0875 4.64397 32.0576 4.26575C31.0276 3.88753 29.932 3.72085 28.8362 3.77568ZM20.319 9.753C26.0592 9.753 30.8174 14.4942 30.8174 20.2514C30.8174 23.0358 29.7113 25.7061 27.7425 27.6749C25.7736 29.6437 23.1033 30.7498 20.319 30.7498C17.5346 30.7498 14.8643 29.6437 12.8955 27.6749C10.9266 25.7061 9.82055 23.0358 9.82055 20.2514C9.82055 17.4671 10.9266 14.7967 12.8955 12.8279C14.8643 10.8591 17.5346 9.753 20.319 9.753ZM20.319 13.5121C18.5388 13.521 16.8341 14.2321 15.5754 15.4909C14.3166 16.7496 13.6055 18.4543 13.5966 20.2345C13.6055 22.0146 14.3166 23.7193 15.5754 24.9781C16.8341 26.2368 18.5388 26.948 20.319 26.9569C22.0991 26.948 23.8038 26.2368 25.0626 24.9781C26.3213 23.7193 27.0324 22.0146 27.0413 20.2345C27.0324 18.4543 26.3213 16.7496 25.0626 15.4909C23.8038 14.2321 22.0991 13.521 20.319 13.5121ZM31.2238 7.1284C31.8525 7.1284 32.4555 7.37816 32.9 7.82273C33.3446 8.26731 33.5944 8.87028 33.5944 9.49901C33.5944 10.1277 33.3446 10.7307 32.9 11.1753C32.4555 11.6199 31.8525 11.8696 31.2238 11.8696C30.595 11.8696 29.9921 11.6199 29.5475 11.1753C29.1029 10.7307 28.8532 10.1277 28.8532 9.49901C28.8532 8.87028 29.1029 8.26731 29.5475 7.82273C29.9921 7.37816 30.595 7.1284 31.2238 7.1284Z" fill="black"/>
</g>
</mask>
<g mask="url(#mask0_256_155)">
<rect x="-10.4683" y="-3.69434" width="61.5743" height="48.0279" fill="#CB6F29"/>
</g>
<defs>
<clipPath id="clip0_256_155">
<rect width="40.639" height="40.639" fill="white"/>
</clipPath>
</defs>
</svg>
