<svg width="642" height="640" viewBox="0 0 642 640" fill="none" xmlns="http://www.w3.org/2000/svg">
<path fill-rule="evenodd" clip-rule="evenodd" d="M257.45 0C254.136 0 251.45 2.68629 251.45 6V48.8025C225.983 55.2901 201.906 65.2578 179.756 78.1692L148.386 46.7988C146.043 44.4557 142.244 44.4557 139.901 46.7988L48.1359 138.564C45.7928 140.907 45.7928 144.706 48.1359 147.049L79.159 178.072C66.2246 199.91 56.1641 223.652 49.4981 248.775H6C2.68629 248.775 0 251.461 0 254.775L5.93491e-06 384.55C5.93491e-06 387.864 2.6863 390.55 6.00001 390.55H48.8026C55.1734 415.559 64.9002 439.227 77.4752 461.046L48.1369 490.385C45.7938 492.728 45.7938 496.527 48.1369 498.87L139.902 590.635C142.245 592.978 146.044 592.978 148.387 590.635L176.887 562.135C199.05 575.41 223.196 585.715 248.775 592.502V633.325C248.775 636.639 251.461 639.325 254.775 639.325H384.55C387.864 639.325 390.55 636.639 390.55 633.325V593.197C416.664 586.545 441.317 576.233 463.929 562.841L493.614 592.526C495.957 594.869 499.756 594.869 502.099 592.526L593.864 500.761C596.207 498.418 596.207 494.619 593.864 492.276L563.831 462.243C576.742 440.093 586.71 416.017 593.197 390.55H636C639.314 390.55 642 387.864 642 384.55V254.775C642 251.461 639.314 248.775 636 248.775H592.502C585.957 224.107 576.139 200.772 563.542 179.262L593.863 148.94C596.206 146.597 596.206 142.798 593.863 140.455L502.098 48.6904C499.755 46.3472 495.956 46.3472 493.613 48.6904L463.435 78.8679C441.733 66.0736 418.16 56.114 393.225 49.4981V6C393.225 2.68629 390.539 0 387.225 0H257.45Z" fill="url(#paint0_linear_105_128)"/>
<defs>
<linearGradient id="paint0_linear_105_128" x1="516.5" y1="3.82488e-05" x2="-426.5" y2="1037.5" gradientUnits="userSpaceOnUse">
<stop offset="1" stop-color="#151414"/>
</linearGradient>
</defs>
</svg>
