<svg width="642" height="640" viewBox="0 0 642 640" fill="none" xmlns="http://www.w3.org/2000/svg">
<path fill-rule="evenodd" clip-rule="evenodd" d="M251.45 6C251.45 2.68629 254.136 0 257.45 0H387.225C390.539 0 393.225 2.68629 393.225 6V49.4981C418.16 56.114 441.733 66.0736 463.435 78.8679L493.613 48.6904C495.956 46.3472 499.755 46.3472 502.098 48.6904L593.863 140.455C596.206 142.798 596.206 146.597 593.863 148.94L563.542 179.262C576.139 200.772 585.957 224.107 592.502 248.775H636C639.314 248.775 642 251.461 642 254.775V384.55C642 387.864 639.314 390.55 636 390.55H593.197C586.71 416.017 576.742 440.093 563.831 462.243L593.864 492.276C596.207 494.619 596.207 498.418 593.864 500.761L502.099 592.526C499.756 594.869 495.957 594.869 493.614 592.526L463.929 562.841C441.317 576.233 416.664 586.545 390.55 593.197V633.325C390.55 636.639 387.864 639.325 384.55 639.325H254.775C251.461 639.325 248.775 636.639 248.775 633.325V592.502C223.196 585.715 199.05 575.41 176.887 562.135L148.387 590.635C146.044 592.978 142.245 592.978 139.902 590.635L48.1369 498.87C45.7938 496.527 45.7938 492.728 48.1369 490.385L77.4752 461.046C64.9002 439.227 55.1734 415.559 48.8026 390.55H6.00001C2.6863 390.55 5.93491e-06 387.864 5.93491e-06 384.55L0 254.775C-1.44847e-07 251.461 2.68629 248.775 6 248.775H49.4981C56.1641 223.652 66.2246 199.91 79.159 178.072L48.1359 147.049C45.7928 144.706 45.7928 140.907 48.1359 138.564L139.901 46.7988C142.244 44.4557 146.043 44.4557 148.386 46.7988L179.756 78.1692C201.906 65.2578 225.983 55.2901 251.45 48.8025V6ZM322.337 537.675C442.742 537.675 540.35 440.067 540.35 319.663C540.35 199.258 442.742 101.65 322.337 101.65C201.933 101.65 104.325 199.258 104.325 319.663C104.325 440.067 201.933 537.675 322.337 537.675Z" fill="url(#paint0_linear_105_128)"/>
<defs>
<linearGradient id="paint0_linear_105_128" x1="516.5" y1="3.82488e-05" x2="-426.5" y2="1037.5" gradientUnits="userSpaceOnUse">
<stop offset="1" stop-color="#151414"/>
</linearGradient>
</defs>
</svg>
