<svg width="96" height="96" viewBox="0 0 96 96" fill="none" xmlns="http://www.w3.org/2000/svg">
<path fill-rule="evenodd" clip-rule="evenodd" d="M48 96C74.5096 96 96 74.5096 96 48C96 21.4904 74.5096 0 48 0C21.4904 0 0 21.4904 0 48C0 74.5096 21.4904 96 48 96ZM72.531 47.5H64V72C64 72.5523 63.5523 73 63 73H52V62C52 61.4477 51.5523 61 51 61H45C44.4477 61 44 61.4477 44 62V73H33C32.4477 73 32 72.5523 32 72V47.5H23.469C22.5924 47.5 22.1401 46.4524 22.7411 45.8143L47.2721 19.7727C47.6669 19.3536 48.3331 19.3536 48.7279 19.7727L73.2589 45.8143C73.8599 46.4524 73.4076 47.5 72.531 47.5Z" fill="url(#paint0_linear_59_44)"/>
<defs>
<linearGradient id="paint0_linear_59_44" x1="82.7228" y1="-2.46259e-07" x2="13.2772" y2="96" gradientUnits="userSpaceOnUse">
<stop stop-color="#E6B856"/>
<stop offset="1" stop-color="#806630"/>
</linearGradient>
</defs>
</svg>
