<svg width="112" height="112" viewBox="0 0 112 112" fill="none" xmlns="http://www.w3.org/2000/svg">
<mask id="mask0_335_106" style="mask-type:alpha" maskUnits="userSpaceOnUse" x="0" y="0" width="112" height="112">
<path d="M79.3332 98V88.6667C79.3332 83.716 77.3665 78.968 73.8658 75.4673C70.3652 71.9667 65.6172 70 60.6665 70H23.3332C18.3825 70 13.6345 71.9667 10.1338 75.4673C6.63317 78.968 4.6665 83.716 4.6665 88.6667V98M107.333 98V88.6667C107.33 84.5307 105.954 80.5129 103.42 77.2441C100.886 73.9753 97.3378 71.6406 93.3332 70.6067M74.6665 14.6067C78.6818 15.6347 82.2407 17.9699 84.7822 21.2441C87.3236 24.5183 88.7031 28.5452 88.7031 32.69C88.7031 36.8348 87.3236 40.8617 84.7822 44.1359C82.2407 47.4101 78.6818 49.7453 74.6665 50.7733M60.6665 32.6667C60.6665 42.976 52.3092 51.3333 41.9998 51.3333C31.6905 51.3333 23.3332 42.976 23.3332 32.6667C23.3332 22.3574 31.6905 14 41.9998 14C52.3092 14 60.6665 22.3574 60.6665 32.6667Z" stroke="white" stroke-width="5" stroke-linecap="round" stroke-linejoin="round"/>
</mask>
<g mask="url(#mask0_335_106)">
<rect width="112" height="112" fill="url(#paint0_linear_335_106)"/>
</g>
<defs>
<linearGradient id="paint0_linear_335_106" x1="112" y1="0" x2="0" y2="112" gradientUnits="userSpaceOnUse">
<stop stop-color="#E6B856"/>
<stop offset="1" stop-color="#806630"/>
</linearGradient>
</defs>
</svg>
