<svg width="116" height="112" viewBox="0 0 116 112" fill="none" xmlns="http://www.w3.org/2000/svg">
<g filter="url(#filter0_d_127_106)">
<path d="M81.3332 98V88.6667C81.3332 83.716 79.3665 78.968 75.8658 75.4673C72.3652 71.9667 67.6172 70 62.6665 70H25.3332C20.3825 70 15.6345 71.9667 12.1338 75.4673C8.63317 78.968 6.6665 83.716 6.6665 88.6667V98M109.333 98V88.6667C109.33 84.5307 107.954 80.5129 105.42 77.2441C102.886 73.9753 99.3378 71.6406 95.3332 70.6067M76.6665 14.6067C80.6818 15.6347 84.2407 17.9699 86.7822 21.2441C89.3236 24.5183 90.7031 28.5452 90.7031 32.69C90.7031 36.8348 89.3236 40.8617 86.7822 44.1359C84.2407 47.4101 80.6818 49.7453 76.6665 50.7733M62.6665 32.6667C62.6665 42.976 54.3092 51.3333 43.9998 51.3333C33.6905 51.3333 25.3332 42.976 25.3332 32.6667C25.3332 22.3574 33.6905 14 43.9998 14C54.3092 14 62.6665 22.3574 62.6665 32.6667Z" stroke="white" stroke-width="5" stroke-linecap="round" stroke-linejoin="round"/>
</g>
<defs>
<filter id="filter0_d_127_106" x="-2" y="0" width="120" height="120" filterUnits="userSpaceOnUse" color-interpolation-filters="sRGB">
<feFlood flood-opacity="0" result="BackgroundImageFix"/>
<feColorMatrix in="SourceAlpha" type="matrix" values="0 0 0 0 0 0 0 0 0 0 0 0 0 0 0 0 0 0 127 0" result="hardAlpha"/>
<feOffset dy="4"/>
<feGaussianBlur stdDeviation="2"/>
<feComposite in2="hardAlpha" operator="out"/>
<feColorMatrix type="matrix" values="0 0 0 0 0 0 0 0 0 0 0 0 0 0 0 0 0 0 0.25 0"/>
<feBlend mode="normal" in2="BackgroundImageFix" result="effect1_dropShadow_127_106"/>
<feBlend mode="normal" in="SourceGraphic" in2="effect1_dropShadow_127_106" result="shape"/>
</filter>
</defs>
</svg>
