<svg width="41" height="41" viewBox="0 0 41 41" fill="none" xmlns="http://www.w3.org/2000/svg">
<mask id="mask0_256_159" style="mask-type:alpha" maskUnits="userSpaceOnUse" x="0" y="0" width="41" height="41">
<g clip-path="url(#clip0_256_159)">
<path d="M20.3872 5.9266C21.3863 5.9266 33.1547 5.96047 36.2026 6.77325C37.0678 7.01171 37.855 7.47366 38.4851 8.1127C39.1153 8.75174 39.5661 9.54536 39.7924 10.4138C40.639 13.6311 40.639 20.3196 40.639 20.3196V20.3873C40.639 21.1154 40.5882 27.2113 39.7924 30.2084C39.5687 31.08 39.119 31.8771 38.4887 32.5193C37.8584 33.1615 37.0698 33.626 36.2026 33.8659C33.2224 34.6787 21.8943 34.7126 20.455 34.7295H20.1671C18.7278 34.7295 7.39969 34.6787 4.43643 33.8829C3.56712 33.6415 2.77714 33.1744 2.14667 32.5291C1.51621 31.8838 1.06769 31.0831 0.846646 30.2084C0.135463 27.4822 0.0169329 22.2499 0 20.726V19.8793C0.0169329 18.3554 0.135463 13.1231 0.846646 10.3969C1.07553 9.53155 1.52753 8.74144 2.15749 8.10554C2.78744 7.46965 3.57327 7.01024 4.43643 6.77325C7.48435 5.94353 19.2527 5.90967 20.2518 5.90967L20.3872 5.9266ZM16.154 14.2237V26.3816L26.7879 20.3196L16.154 14.2407V14.2237Z" fill="black"/>
</g>
</mask>
<g mask="url(#mask0_256_159)">
<rect x="-13.5459" y="-3.69434" width="61.5743" height="48.0279" fill="#CB6F29"/>
</g>
<defs>
<clipPath id="clip0_256_159">
<rect width="40.639" height="40.639" fill="white"/>
</clipPath>
</defs>
</svg>
